<?xml version="1.0" standalone="yes"?>
<svg xmlns="http://www.w3.org/2000/svg" width="314" height="280">
<path style="fill:#000000; stroke:none;" d="M0 0L0 280L314 280L314 211C312.64 214.153 312.575 217.704 311.477 221C309.497 226.944 305.976 232.347 301.826 237C295.877 243.672 288.647 249.878 281 254.536C233.68 283.36 173.062 256.523 139.17 219C122.692 200.757 107.898 180.946 92.25 162C85.6327 153.988 79.3879 142.884 70 138C75.0219 131.434 82.5162 126.635 89 121.576C101.148 112.096 115.07 101.678 124 89L112 96C106.785 77.4431 107.868 50.0398 121.185 35.0039C129.194 25.9622 140.108 21.7111 150 15.3009C154.951 12.0927 158.391 7.5242 163 4C165.877 10.9199 169.07 17.4123 169.829 25C172.233 49.0259 157.904 71.3259 141.961 88C134.009 96.3162 125.728 104.241 117 111.729C114.185 114.144 108.564 117.619 109.458 122C110.258 125.924 114.619 130.004 117.084 133C123.364 140.632 129.59 148.314 135.803 156C155.809 180.75 174.339 209.593 199 229.916C209.001 238.158 222.311 247.751 236 246.906C266.753 245.008 278.945 202.102 261.471 180.015C251.202 167.035 235.485 169.714 222 164C226.056 160.995 231.094 159.962 234.957 156.66C243.7 149.185 245.92 135.909 244.829 125C243.664 113.345 238.826 103.288 227 99.7215C224.525 98.975 220.87 97.5416 218.318 98.6427C215.594 99.8181 216.017 103.583 216.001 106C215.948 113.666 216 121.334 216 129C216 153.28 217.41 177.389 216.191 201.576C215.917 207.002 215.729 212.576 216.09 218C216.238 220.236 217.363 223.561 215.933 225.574C213.394 229.149 207.127 223.389 205 221.764C196.341 215.145 184.671 206.768 179.434 197C175.551 189.759 177.769 176.096 177.83 168C177.938 153.745 178 139.368 178 125C178 117.81 178.763 110.122 177.699 103C176.959 98.0427 174.592 93.7892 169.996 91.4568C165.355 89.1014 160.773 90.839 159 85L208 85C225.013 85 241.975 85.1075 258 91.6042C277.876 99.6621 291.403 118.191 284.251 140C281.59 148.114 275.754 153.244 271 160C277.334 162.389 283.992 163.592 290 166.904C304.385 174.833 312.955 189.752 313 206C315.395 200.293 314 192.154 314 186L314 145L314 0L0 0z"/>
<path style="fill:#edb852; stroke:none;" d="M124 89C112.751 100.249 101.301 110.835 89 120.917C82.7367 126.05 73.7297 130.634 70 138C77.2123 143.51 82.5587 150.96 88.1998 158C95.4591 167.06 102.94 175.94 110.2 185C121.282 198.831 132.185 213.688 145 225.961C168.782 248.736 201.476 266.218 235 266.985C262.276 267.61 291.952 254.325 306.91 231C318.355 213.152 314.705 186.891 298.83 172.808C290.57 165.479 280.623 162.193 270 160C285.038 148.534 291.824 126.078 281.521 109C277.174 101.795 270.399 97.0608 263 93.3704C246.554 85.1674 227.926 85 210 85L159 85C159.997 90.9714 164.497 89.1918 168.999 91.4568C173.988 93.9668 176.89 98.5835 177.699 104C178.81 111.44 178 119.488 178 127L178 171C178 178.589 175.898 189.955 178.938 197C182.249 204.671 190.851 210.703 197 216C202.587 220.813 208.57 226.563 216 228C217.875 219.84 215.673 210.445 216.039 202C217.024 179.306 216 156.769 216 134L216 110C216 107.101 215.305 102.862 217.028 100.322C219.589 96.5451 225.781 99.2766 229 100.63C238.734 104.724 243.407 113.992 244.711 124C246.113 134.763 243.717 147.733 235.674 155.532C231.762 159.325 224.741 159.703 223 165C236.568 168.239 250.845 168.411 260.671 180.015C279.036 201.701 267.058 240.016 239 246.32C225.79 249.288 211.714 239.278 202 231.55C175.747 210.666 156.969 180.69 135.75 155C129.182 147.048 122.59 139.105 116.211 131C114.222 128.473 110.07 124.639 109.743 121.285C109.432 118.096 113.923 115.215 116 113.424C123.621 106.853 130.898 100.135 137.999 93C160.712 70.177 181.425 35.6867 163 4C157.703 6.68173 154.055 11.9936 149 15.304C134.623 24.7191 119.384 30.4584 113.09 48C109.06 59.2323 109.944 71.2763 110.001 83C110.015 85.8631 109.435 93.0105 112.589 94.5965C115.991 96.3073 121.488 90.7987 124 89z"/>
<path style="fill:#ffff00; stroke:none;" d="M168 17L169 18L168 17z"/>
<path style="fill:#ff8080; stroke:none;" d="M142 19L143 20L142 19z"/>
<path style="fill:#ffff00; stroke:none;" d="M169 22L170 23L169 22z"/>
<path style="fill:#ff8080; stroke:none;" d="M126 29L127 30L126 29M169 39L170 40L169 39z"/>
<path style="fill:#ffff00; stroke:none;" d="M168 44L169 45L168 44M3 45L4 46L3 45z"/>
<path style="fill:#edb852; stroke:none;" d="M2 46C3.66223 51.0089 8.73058 49.8773 13 51.804C17.6379 53.897 21.4345 58.1603 23.0069 63C24.5481 67.7432 24 73.0861 24 78L24 104L24 191C24 202.477 27.3952 220.447 19.6057 229.957C15.5072 234.96 10.7489 235.292 5.15278 237.277C3.85646 237.737 2.16643 238.86 3.17593 240.455C4.29004 242.216 7.23345 241.962 9.00077 241.995C13.9968 242.09 19.003 242 24 242L89 242C87.9904 235.95 82.7313 237.157 78 235.03C73.3682 232.948 69.7427 228.976 68.5332 224C65.7231 212.439 68 197.88 68 186L68 109L68 78C68 72.9735 67.0669 66.7796 68.8935 62C72.7032 52.0312 81.8782 52.3356 90 49C86.3933 42.4593 74.5463 45 68 45L26 45C18.0997 45 9.72351 44.1612 2 46z"/>
<path style="fill:#ffff00; stroke:none;" d="M9 50L10 51L9 50z"/>
<path style="fill:#ff8080; stroke:none;" d="M82 50L83 51L82 50z"/>
<path style="fill:#ffff00; stroke:none;" d="M15 52L16 53L15 52z"/>
<path style="fill:#ff8080; stroke:none;" d="M165 53L166 54L165 53M69 59L70 60L69 59M156 70L157 71L156 70z"/>
<path style="fill:#ffff00; stroke:none;" d="M153 74L154 75L153 74M145 84L146 85L145 84z"/>
<path style="fill:#ff8080; stroke:none;" d="M126 86L127 87L126 86z"/>
<path style="fill:#ffff00; stroke:none;" d="M124 88L125 89L124 88z"/>
<path style="fill:#ff8080; stroke:none;" d="M249 88L250 89L249 88z"/>
<path style="fill:#ffff00; stroke:none;" d="M110 90L111 91L110 90M112 95L113 96L112 95z"/>
<path style="fill:#ff8080; stroke:none;" d="M266 95L267 96L266 95M222 98L223 99L222 98z"/>
<path style="fill:#ffff00; stroke:none;" d="M226 99L227 100L226 99M106 106L107 107L106 106z"/>
<path style="fill:#ff8080; stroke:none;" d="M241 111L242 112L241 111z"/>
<path style="fill:#ffff00; stroke:none;" d="M97 114L98 115L97 114M243 117L244 118L243 117z"/>
<path style="fill:#ff8080; stroke:none;" d="M87 122L88 123L87 122M244 122L245 123L244 122z"/>
<path style="fill:#ffff00; stroke:none;" d="M83 125L84 126L83 125z"/>
<path style="fill:#ff8080; stroke:none;" d="M119 135L120 136L119 135z"/>
<path style="fill:#ffff00; stroke:none;" d="M123 140L124 141L123 140z"/>
<path style="fill:#ff8080; stroke:none;" d="M242 145L243 146L242 145z"/>
<path style="fill:#ffff00; stroke:none;" d="M240 149L241 150L240 149M132 151L133 152L132 151M177 154L178 155L177 154z"/>
<path style="fill:#ff8080; stroke:none;" d="M177.333 155.667C177.278 155.722 177.222 156.778 177.667 156.333C177.722 156.278 177.778 155.222 177.333 155.667z"/>
<path style="fill:#ffff00; stroke:none;" d="M236 155L237 156L236 155M177 157L177 160C177.696 158.446 177.696 158.554 177 157M216 158L217 159L216 158z"/>
<path style="fill:#ff8080; stroke:none;" d="M232 158L233 159L232 158z"/>
<path style="fill:#ffff00; stroke:none;" d="M270 159L271 160L270 159z"/>
<path style="fill:#ff8080; stroke:none;" d="M177 160L178 161L177 160z"/>
<path style="fill:#ffff00; stroke:none;" d="M177 161L177 164C177.696 162.446 177.696 162.554 177 161M141 162L142 163L141 162z"/>
<path style="fill:#ff8080; stroke:none;" d="M216 163L216 166C216.696 164.446 216.696 164.554 216 163z"/>
<path style="fill:#ffff00; stroke:none;" d="M222 163L223 164L222 163z"/>
<path style="fill:#ff8080; stroke:none;" d="M224 165L225 166L224 165z"/>
<path style="fill:#ffff00; stroke:none;" d="M291 167L292 168L291 167z"/>
<path style="fill:#ff8080; stroke:none;" d="M294 169L295 170L294 169z"/>
<path style="fill:#ffff00; stroke:none;" d="M177 170L177 173C177.696 171.446 177.696 171.554 177 170M247 170L248 171L247 170z"/>
<path style="fill:#ff8080; stroke:none;" d="M298 172L299 173L298 172M299 173L300 174L299 173z"/>
<path style="fill:#ffff00; stroke:none;" d="M301 175L302 176L301 175M216.333 176.667C216.278 176.722 216.222 177.778 216.667 177.333C216.722 177.278 216.778 176.222 216.333 176.667z"/>
<path style="fill:#ff8080; stroke:none;" d="M104 177L105 178L104 177z"/>
<path style="fill:#ffff00; stroke:none;" d="M216.333 179.667C216.278 179.722 216.222 180.778 216.667 180.333C216.722 180.278 216.778 179.222 216.333 179.667z"/>
<path style="fill:#ff8080; stroke:none;" d="M216 181L217 182L216 181z"/>
<path style="fill:#ffff00; stroke:none;" d="M108 182L109 183L108 182M216 182L217 183L216 182M158 183L159 184L158 183M308 185L309 186L308 185M216 186L217 187L216 186z"/>
<path style="fill:#ff8080; stroke:none;" d="M161 187L162 188L161 187M309 187L310 188L309 187M216.333 189.667C216.278 189.722 216.222 190.778 216.667 190.333C216.722 190.278 216.778 189.222 216.333 189.667z"/>
<path style="fill:#ffff00; stroke:none;" d="M216 191L217 192L216 191z"/>
<path style="fill:#ff8080; stroke:none;" d="M165 192L166 193L165 192M216 192L217 193L216 192M117 193L118 194L117 193M268 195L269 196L268 195z"/>
<path style="fill:#ffff00; stroke:none;" d="M216 197L217 198L216 197M172 201L173 202L172 201M216 201L217 202L216 201M126 204L127 205L126 204M313 206L314 207L313 206z"/>
<path style="fill:#ff8080; stroke:none;" d="M313 210L314 211L313 210z"/>
<path style="fill:#ffff00; stroke:none;" d="M268 215L269 216L268 215z"/>
<path style="fill:#ff8080; stroke:none;" d="M23 221L24 222L23 221z"/>
<path style="fill:#ffff00; stroke:none;" d="M266 222L267 223L266 222M216 226L217 227L216 226M309 226L310 227L309 226z"/>
<path style="fill:#ff8080; stroke:none;" d="M150 230L151 231L150 230M306 231L307 232L306 231z"/>
<path style="fill:#ffff00; stroke:none;" d="M156 235L157 236L156 235z"/>
<path style="fill:#ff8080; stroke:none;" d="M303 235L304 236L303 235M214 240L215 241L214 240z"/>
<path style="fill:#ffff00; stroke:none;" d="M247 243L248 244L247 243z"/>
<path style="fill:#ff8080; stroke:none;" d="M170 245L171 246L170 245z"/>
<path style="fill:#ffff00; stroke:none;" d="M184 253L185 254L184 253z"/>
<path style="fill:#ff8080; stroke:none;" d="M279 255L280 256L279 255z"/>
<path style="fill:#ffff00; stroke:none;" d="M195 258L196 259L195 258z"/>
<path style="fill:#ff8080; stroke:none;" d="M269 260L270 261L269 260z"/>
<path style="fill:#ffff00; stroke:none;" d="M260 263L261 264L260 263z"/>
<path style="fill:#ff8080; stroke:none;" d="M256 264L257 265L256 264z"/>
<path style="fill:#ffff00; stroke:none;" d="M221 265L222 266L221 265M252 265L253 266L252 265M229 266L230 267L229 266z"/>
<path style="fill:#ff8080; stroke:none;" d="M243 266L244 267L243 266z"/>
</svg>
